<svg xmlns="http://www.w3.org/2000/svg" width="373" height="358" viewBox="0 0 373 358" fill="none"><g clip-path="url(#clip0_2146_66668)"><rect width="373" height="358" fill="#5b64ec"></rect><g filter="url(#filter0_dd_2146_66668)"><rect x="17" y="222.148" width="49.2092" height="49.2092" rx="4.92092" fill="#C74634"></rect><path fill-rule="evenodd" clip-rule="evenodd" d="M36.8318 252.122C33.7684 252.122 31.2856 249.636 31.2856 246.584C31.2856 243.518 33.7684 241.046 36.8311 241.046H46.3506C49.4243 241.046 51.9044 243.518 51.9044 246.584C51.9044 249.636 49.4243 252.122 46.3506 252.122H36.8318ZM46.5785 255.133C51.319 255.133 55.1373 251.309 55.1373 246.584C55.1373 241.853 51.319 238.021 46.5785 238.021H36.6122C31.8758 238.021 28.0349 241.853 28.0349 246.584C28.0349 251.309 31.8758 255.133 36.6129 255.133H46.5785Z" fill="white"></path></g><g filter="url(#filter1_dd_2146_66668)"><rect x="89.3799" y="222.148" width="49.2092" height="49.2092" rx="4.92092" fill="white"></rect><path d="M113.652 231.577C113.167 231.578 112.691 231.711 112.275 231.964C111.859 232.216 111.519 232.578 111.291 233.011C111.063 233.444 110.955 233.932 110.98 234.422C111.005 234.912 111.161 235.386 111.432 235.793L112.575 234.639C112.537 234.523 112.518 234.403 112.519 234.282C112.519 234.056 112.585 233.835 112.709 233.648C112.833 233.46 113.009 233.314 113.215 233.227C113.422 233.141 113.649 233.118 113.868 233.162C114.087 233.207 114.288 233.315 114.446 233.475C114.603 233.634 114.711 233.838 114.755 234.059C114.798 234.28 114.776 234.51 114.69 234.718C114.605 234.927 114.46 235.105 114.275 235.23C114.089 235.356 113.871 235.423 113.647 235.423C113.528 235.423 113.409 235.404 113.296 235.366L112.154 236.52C112.501 236.757 112.897 236.909 113.313 236.964C113.728 237.018 114.15 236.973 114.545 236.832C114.94 236.692 115.296 236.459 115.586 236.154C115.876 235.848 116.091 235.479 116.214 235.074C116.336 234.669 116.363 234.241 116.292 233.824C116.222 233.407 116.055 233.012 115.806 232.672C115.557 232.332 115.232 232.056 114.858 231.866C114.484 231.676 114.071 231.577 113.652 231.577Z" fill="#34A853"></path><path d="M112.589 239.46C112.591 238.546 112.298 237.657 111.755 236.927L110.272 238.425C110.497 238.842 110.58 239.323 110.506 239.792C110.433 240.262 110.207 240.694 109.865 241.02L110.672 243.012C111.259 242.629 111.743 242.103 112.078 241.483C112.413 240.862 112.589 240.167 112.589 239.46Z" fill="#FBBC04"></path><path d="M108.443 241.609H108.404C108.072 241.609 107.745 241.531 107.449 241.38C107.152 241.23 106.895 241.011 106.697 240.742C106.498 240.473 106.365 240.161 106.308 239.831C106.25 239.501 106.269 239.162 106.365 238.84C106.46 238.519 106.628 238.225 106.855 237.981C107.083 237.737 107.364 237.55 107.675 237.435C107.987 237.321 108.321 237.281 108.65 237.32C108.98 237.359 109.296 237.475 109.573 237.659L111.042 236.174C110.522 235.748 109.909 235.454 109.253 235.318C108.598 235.181 107.919 235.205 107.275 235.388C106.631 235.572 106.039 235.909 105.551 236.371C105.062 236.833 104.69 237.407 104.466 238.044C104.242 238.682 104.173 239.365 104.264 240.035C104.355 240.705 104.604 241.344 104.99 241.896C105.376 242.449 105.887 242.9 106.481 243.212C107.075 243.524 107.735 243.687 108.404 243.687C108.688 243.687 108.971 243.659 109.249 243.603L108.443 241.609Z" fill="#EA4335"></path><path d="M113.709 243.33C112.781 243.33 111.857 243.466 110.968 243.736L112.144 246.64C112.655 246.511 113.181 246.447 113.708 246.447C115.189 246.448 116.625 246.967 117.77 247.918C118.914 248.868 119.698 250.19 119.987 251.659C120.275 253.128 120.051 254.652 119.353 255.973C118.654 257.293 117.524 258.328 116.156 258.901C114.787 259.474 113.264 259.549 111.846 259.114C110.429 258.679 109.204 257.761 108.381 256.516C107.558 255.271 107.188 253.776 107.333 252.285C107.479 250.795 108.131 249.402 109.178 248.343C109.629 247.889 110.143 247.504 110.705 247.202L109.543 244.307C107.449 245.343 105.806 247.122 104.927 249.304C104.047 251.486 103.992 253.919 104.773 256.139C105.554 258.36 107.116 260.212 109.161 261.343C111.205 262.474 113.59 262.805 115.861 262.274C118.132 261.742 120.13 260.384 121.474 258.458C122.818 256.533 123.415 254.176 123.15 251.835C122.885 249.493 121.777 247.333 120.038 245.764C118.298 244.196 116.049 243.329 113.718 243.329L113.709 243.33Z" fill="#4285F4"></path></g><g filter="url(#filter2_dd_2146_66668)"><rect x="161.544" y="222.148" width="49.2092" height="49.2092" rx="4.92092" fill="url(#paint0_linear_2146_66668)"></rect><path d="M187.111 250.086C186.735 248.913 186.542 247.689 186.538 246.457H190.238C190.222 247.332 189.901 248.174 189.33 248.837C188.759 249.499 187.974 249.941 187.111 250.086ZM198.427 258.346C196.348 258.336 194.308 257.784 192.506 256.747C194.217 255.752 195.654 254.348 196.688 252.66C197.721 250.972 198.319 249.054 198.427 247.078V258.346Z" fill="#B6EAED"></path><path d="M187.111 250.086C186.735 248.913 186.542 247.689 186.538 246.457H190.238C190.222 247.332 189.901 248.174 189.33 248.837C188.759 249.499 187.974 249.941 187.111 250.086Z" fill="#B8E4F5"></path><path d="M178.086 254.86C176.978 253.759 176.097 252.45 175.495 251.008C174.893 249.566 174.581 248.019 174.577 246.457H182.765C182.782 247.438 183.185 248.373 183.887 249.059L178.086 254.86Z" fill="#A0D7EF"></path><path d="M186.513 258.344C183.364 258.349 180.342 257.104 178.11 254.882L183.911 249.081C184.604 249.766 185.538 250.152 186.513 250.156H186.537V258.344H186.513Z" fill="#DCF2FA"></path><path d="M178.11 254.885H178.086L183.887 249.06H183.911L178.11 254.885Z" fill="#DCF2FA"></path><path d="M183.84 243.807L178.039 238.006C179.147 236.886 180.467 235.997 181.922 235.39C183.377 234.784 184.938 234.472 186.514 234.473H186.538V242.662H186.514C186.016 242.66 185.522 242.759 185.063 242.952C184.604 243.144 184.188 243.427 183.84 243.784" fill="#F3F9FD"></path><path d="M182.789 246.456H174.577V246.408C174.572 243.259 175.817 240.237 178.039 238.005L183.816 243.83C183.154 244.525 182.787 245.449 182.789 246.408V246.456Z" fill="#B7DBF0"></path><path d="M183.816 243.83L178.039 238.005L183.84 243.806H183.816" fill="#F3F9FD"></path><path d="M189.163 243.784C188.485 243.101 187.57 242.708 186.608 242.685V234.473C189.748 234.494 192.751 235.755 194.964 237.982L189.163 243.784Z" fill="#A0D7EF"></path><path d="M186.608 242.685H186.561V234.473H186.608V242.685Z" fill="#A0D7EF"></path><path d="M198.427 247.078V246.457H198.451C198.451 246.672 198.451 246.887 198.427 247.078ZM186.538 258.346V250.133L187.111 250.086C188.014 252.902 189.939 255.278 192.506 256.746C190.692 257.796 188.633 258.348 186.538 258.346Z" fill="#B8E8F4"></path><path d="M192.506 256.746C189.939 255.278 188.014 252.902 187.111 250.086C187.973 249.941 188.758 249.499 189.33 248.836C189.901 248.173 190.222 247.332 190.238 246.457H198.426V247.078C198.318 249.054 197.721 250.972 196.687 252.66C195.654 254.347 194.217 255.752 192.506 256.746Z" fill="#FAFEFE"></path></g><g filter="url(#filter3_dd_2146_66668)"><rect x="233.708" y="222.148" width="49.2092" height="49.2092" rx="4.92092" fill="#99CCEE"></rect><path d="M242.967 251.415C243.727 250.486 244.269 249.34 244.504 248.072C245.111 251.345 247.764 253.81 250.945 253.81C254.126 253.81 256.779 251.345 257.385 248.071V253.81H259.563V245.241L263.956 250.031L268.331 245.241V253.81H270.546V248.071C271.153 251.345 273.806 253.81 276.987 253.81C279.601 253.81 281.858 252.145 282.917 249.736V243.554C281.858 241.144 279.601 239.48 276.987 239.48C273.806 239.48 271.153 241.945 270.546 245.219V239.48L263.956 246.645L257.385 239.48V245.219C256.779 241.945 254.126 239.48 250.945 239.48C247.764 239.48 245.111 241.944 244.504 245.217C244.269 243.95 243.727 242.804 242.967 241.875C241.763 240.405 240.013 239.48 238.064 239.48H233.708V253.81H238.064C240.013 253.81 241.763 252.884 242.967 251.415ZM276.987 241.864C279.409 241.864 281.372 244.004 281.372 246.645C281.372 249.285 279.409 251.426 276.987 251.426C274.565 251.426 272.602 249.285 272.602 246.645C272.602 244.004 274.565 241.864 276.987 241.864ZM250.945 241.864C253.366 241.864 255.329 244.004 255.329 246.645C255.329 249.285 253.366 251.426 250.945 251.426C248.523 251.426 246.56 249.285 246.56 246.645C246.56 244.004 248.523 241.864 250.945 241.864ZM235.885 241.875H238.351C240.639 242.036 242.449 244.11 242.449 246.645C242.449 249.181 240.638 251.254 238.349 251.415H235.885V241.875Z" fill="white"></path></g><g filter="url(#filter4_dd_2146_66668)"><rect x="306.23" y="222.148" width="49.2092" height="49.2092" rx="4.92092" fill="white"></rect><path d="M339.831 252.086H330.227C327.902 252.086 326.606 253.69 326.606 255.392C326.606 256.967 327.708 258.699 330.227 258.699H339.831V252.086Z" fill="#669DF6"></path><path d="M339.83 258.699C341.656 258.699 343.137 257.218 343.137 255.392C343.137 253.566 341.656 252.086 339.83 252.086C338.004 252.086 336.524 253.566 336.524 255.392C336.524 257.218 338.004 258.699 339.83 258.699Z" fill="#1A73E8"></path><path d="M329.913 243.268H320.308C317.983 243.268 316.687 244.872 316.687 246.574C316.687 248.149 317.789 249.88 320.308 249.88H329.913V243.268Z" fill="#669DF6"></path><path d="M329.911 249.88C331.737 249.88 333.218 248.4 333.218 246.574C333.218 244.748 331.737 243.268 329.911 243.268C328.085 243.268 326.605 244.748 326.605 246.574C326.605 248.4 328.085 249.88 329.911 249.88Z" fill="#1A73E8"></path><path d="M339.831 234.451H330.227C327.902 234.451 326.606 236.055 326.606 237.757C326.606 239.332 327.708 241.064 330.227 241.064H339.831V234.451Z" fill="#669DF6"></path><path d="M339.83 241.064C341.656 241.064 343.137 239.583 343.137 237.757C343.137 235.931 341.656 234.451 339.83 234.451C338.004 234.451 336.524 235.931 336.524 237.757C336.524 239.583 338.004 241.064 339.83 241.064Z" fill="#1A73E8"></path></g><g filter="url(#filter5_dd_2146_66668)"><rect x="54" y="154.766" width="49.2092" height="49.2092" rx="4.92092" fill="white"></rect><g clip-path="url(#clip1_2146_66668)"><path d="M69.656 179.134V173.238V171.055H73.009H83.3878H86.7409V173.238V179.134L89.5231 177.322L90.2621 176.192V176.181L89.5231 175.05L87.6918 173.857V170.122H81.955L78.2088 167.683H78.1881L74.4419 170.122H68.7051V173.857L66.8737 175.05L66.1348 176.181V176.192L66.8737 177.322L69.656 179.134Z" fill="#091B36"></path><path d="M90.7095 177.16L90.1861 177.962L82.094 183.23L90.5643 190.963C90.6607 190.772 90.7107 190.562 90.7104 190.349V177.203C90.7104 177.189 90.71 177.174 90.7095 177.16Z" fill="#091B36"></path><path d="M66.2117 177.961L65.6882 177.16C65.6882 177.174 65.6882 177.189 65.6882 177.204V190.348C65.6881 190.561 65.7381 190.77 65.8343 190.961L74.3046 183.228L66.2117 177.961Z" fill="#091B36"></path><path d="M78.1984 185.767L75.0821 183.739L66.4761 191.597C66.6719 191.694 66.8881 191.744 67.1073 191.744H89.2896C89.5088 191.744 89.725 191.694 89.9208 191.597L81.3148 183.739L78.1984 185.767Z" fill="#091B36"></path><path d="M76.905 174.669C76.1015 175.116 75.6002 176.184 75.496 177.057C75.3878 177.965 75.6313 179.065 76.5569 179.487C77.2733 179.814 78.1953 179.636 78.6985 179.028C79.5001 180.339 81.4893 179.324 82.1873 178.245C82.9041 177.139 83.0498 175.755 82.4812 174.552C81.662 172.819 79.4361 172.248 77.6475 172.497C75.3031 172.823 73.6777 174.828 73.6349 177.11C73.5898 179.367 74.9496 181.095 77.2048 181.549C79.0398 181.917 81.2982 181.504 82.5624 180.081C82.8072 179.805 82.5624 179.373 82.1954 179.443H82.1877C81.9451 179.493 81.8117 179.65 81.6187 179.794C81.0882 180.183 80.4812 180.46 79.836 180.608C78.8247 180.848 77.657 180.845 76.6768 180.482C74.6678 179.74 74.1218 177.422 74.8617 175.583C75.5271 173.924 77.4099 173.094 79.1448 173.371C81.2612 173.712 82.5619 175.473 81.552 177.478C81.3662 177.846 81.056 178.362 80.5935 178.43C80.1088 178.499 79.9623 178.166 80.0227 177.766C80.1579 176.848 80.4988 175.978 80.671 175.061C80.6835 174.993 80.681 174.923 80.6639 174.856C80.6467 174.789 80.6152 174.727 80.5715 174.673C80.5278 174.618 80.4729 174.574 80.4103 174.542C80.3478 174.511 80.2791 174.493 80.2089 174.489C79.7486 174.463 79.2747 174.48 79.3279 175.057C78.8026 174.299 77.6692 174.243 76.905 174.669ZM78.5136 178.306C77.7251 179.131 76.74 178.612 76.7553 177.554C76.735 176.796 76.9356 175.699 77.7499 175.366C78.478 175.068 79.079 175.669 79.1309 176.349C79.1796 176.991 78.969 177.828 78.5136 178.306Z" fill="#091B36"></path></g></g><g filter="url(#filter6_dd_2146_66668)"><rect x="125.826" y="154.766" width="49.2092" height="49.2092" rx="4.92092" fill="#212322"></rect><path d="M151.778 193.792V187.69C153.238 187.599 154.45 187.028 155.338 185.807C155.929 185.027 156.249 184.058 156.245 183.06C156.257 181.805 155.802 180.595 154.978 179.69C154.113 178.734 153.02 178.386 151.788 178.243V172.158C155.452 172.26 158.357 173.81 160.312 176.999C162.676 180.854 162.729 184.902 160.41 188.792C158.465 192.058 155.53 193.657 151.778 193.792Z" fill="white"></path><path d="M148.904 164.583V170.48C147.431 170.67 146.143 171.185 145.261 172.491C144.693 173.298 144.386 174.277 144.387 175.283C144.377 176.552 144.846 177.774 145.691 178.679C146.557 179.626 147.663 180.031 148.904 180.177V186.191C145.238 186.078 142.326 184.531 140.382 181.368C138.011 177.511 137.954 173.47 140.247 169.509C142.215 166.11 146.034 164.31 148.904 164.583Z" fill="#FCC805"></path></g><g filter="url(#filter7_dd_2146_66668)"><rect x="197.651" y="154.766" width="49.2092" height="49.2092" rx="4.92092" fill="white"></rect><path d="M223.819 178.852L213.152 176.991V190.742C213.152 191.37 213.667 191.879 214.302 191.879H232.708C233.343 191.879 233.858 191.37 233.858 190.742V185.675L223.819 178.852Z" fill="#185C37"></path><path d="M223.819 167.068H214.302C213.667 167.068 213.152 167.577 213.152 168.205V173.271L223.819 179.474L229.466 181.335L233.858 179.474V173.271L223.819 167.068Z" fill="#21A366"></path><path d="M213.152 173.272H223.819V179.475H213.152V173.272Z" fill="#107C41"></path><path opacity="0.1" d="M220.786 172.03H213.152V187.538H220.786C221.421 187.536 221.934 187.028 221.936 186.401V173.167C221.934 172.54 221.421 172.032 220.786 172.03Z" fill="black"></path><path opacity="0.2" d="M220.159 172.649H213.152V188.157H220.159C220.793 188.155 221.307 187.647 221.309 187.02V173.786C221.307 173.159 220.793 172.651 220.159 172.649Z" fill="black"></path><path opacity="0.2" d="M220.159 172.649H213.152V186.916H220.159C220.793 186.914 221.307 186.406 221.309 185.779V173.786C221.307 173.159 220.793 172.651 220.159 172.649Z" fill="black"></path><path opacity="0.2" d="M219.532 172.649H213.152V186.916H219.532C220.166 186.914 220.68 186.406 220.682 185.779V173.786C220.68 173.159 220.166 172.651 219.532 172.649Z" fill="black"></path><path d="M208.028 172.649H219.532C220.167 172.649 220.682 173.158 220.682 173.786V185.159C220.682 185.787 220.167 186.296 219.532 186.296H208.028C207.393 186.296 206.878 185.787 206.878 185.159V173.786C206.878 173.158 207.393 172.649 208.028 172.649Z" fill="url(#paint1_linear_2146_66668)"></path><path d="M210.441 183.172L212.86 179.466L210.643 175.78H212.427L213.636 178.137C213.748 178.361 213.824 178.528 213.866 178.637H213.882C213.96 178.461 214.043 178.288 214.133 178.117L215.426 175.781H217.063L214.789 179.446L217.12 183.172H215.379L213.981 180.585C213.915 180.475 213.86 180.359 213.814 180.24H213.794C213.753 180.357 213.698 180.469 213.632 180.575L212.193 183.172H210.441Z" fill="white"></path><path d="M232.707 167.068H223.818V173.271H233.857V168.205C233.857 167.577 233.342 167.068 232.707 167.068Z" fill="#33C481"></path><path d="M223.818 179.472H233.857V185.675H223.818V179.472Z" fill="#107C41"></path></g><g filter="url(#filter8_dd_2146_66668)"><rect x="269.477" y="154.766" width="49.2092" height="49.2092" rx="4.92092" fill="#007CC2"></rect><path d="M294.488 167.521C293.666 167.503 292.818 167.6 291.949 167.819C287.932 168.831 283.434 174.045 288.345 180.058L291.276 183.637L292.103 184.656C292.659 185.322 293.568 185.31 294.235 184.755C294.906 184.197 295.097 183.282 294.544 182.604C294.543 182.603 294.309 182.318 294.207 182.194H294.221C294.009 181.937 293.963 181.894 293.744 181.628C292.683 180.341 291.472 178.855 291.472 178.855C289.34 176.244 290.292 173.019 293.183 171.186C295.731 169.571 300.407 170.148 302.018 172.799C301.003 169.776 298.046 167.603 294.488 167.521ZM295.077 173.832C294.698 173.819 294.302 173.965 293.969 174.242C293.297 174.801 293.108 175.717 293.66 176.393C293.661 176.395 293.728 176.478 293.842 176.619C295.114 178.16 296.801 180.227 296.801 180.227C298.934 182.838 297.982 186.049 295.091 187.882C292.543 189.496 287.867 188.918 286.255 186.269C287.505 189.987 291.692 192.418 296.325 191.25C300.343 190.235 304.839 185.036 299.929 179.025L296.493 174.837L296.1 174.341C295.823 174.008 295.455 173.845 295.077 173.832Z" fill="white"></path></g><g filter="url(#filter9_dd_2146_66668)"><rect x="17" y="88.1233" width="49.2092" height="49.2092" rx="4.92092" fill="#091B36"></rect><path d="M30.5859 115.228V107.321H28.7272V115.251C28.7272 115.836 28.6002 116.187 28.15 116.187C27.896 116.187 27.6766 116.14 27.5265 116.081L27.4573 117.473C27.5612 117.532 28.0922 117.649 28.6464 117.649C29.2929 117.649 29.7893 117.403 30.0894 117.052C30.4127 116.678 30.5859 116.081 30.5859 115.228Z" fill="white"></path><path d="M37.7679 112.935C37.7679 112.21 37.4793 111.719 37.1445 111.379C36.7866 111.017 36.2555 110.806 36.0362 110.724C35.7822 110.619 35.1934 110.409 34.8471 110.268C34.4892 110.128 34.039 109.941 34.039 109.449C34.039 108.958 34.4777 108.724 35.078 108.724C35.6783 108.724 36.3941 109.075 36.8559 109.543L37.6524 108.221C37.1098 107.671 36.0477 107.227 35.1242 107.227C34.2006 107.227 33.4733 107.484 33.023 107.87C32.5613 108.256 32.1918 108.865 32.1918 109.637C32.1918 110.397 32.4689 110.865 32.8152 111.192C33.1616 111.531 33.5656 111.683 33.7619 111.777C34.0274 111.894 34.6277 112.105 34.9741 112.233C35.3204 112.362 35.9092 112.572 35.9092 113.122C35.9092 113.66 35.4474 113.953 34.8471 113.953C34.2352 113.953 33.3463 113.543 32.7691 112.935L31.8455 114.315C32.492 114.923 33.5195 115.532 34.6739 115.532C35.5282 115.532 36.2671 115.321 36.8328 114.865C37.41 114.409 37.7679 113.707 37.7679 112.935Z" fill="white"></path><path d="M47.1509 111.368C47.1509 108.759 45.2922 107.192 42.9255 107.192C40.5589 107.192 38.7002 108.759 38.7002 111.368C38.7002 113.976 40.5589 115.532 42.9255 115.532C45.2922 115.532 47.1509 113.976 47.1509 111.368ZM45.2575 111.321C45.2575 112.865 44.2532 113.847 42.9255 113.847C41.5979 113.847 40.5935 112.865 40.5935 111.321C40.5935 109.777 41.5979 108.806 42.9255 108.806C44.2532 108.806 45.2575 109.789 45.2575 111.321Z" fill="white"></path><path d="M55.7526 115.391V107.321H53.9285V110.982C53.9285 111.836 53.9632 112.748 53.9632 112.748L50.546 107.321H48.5487V115.391H50.3728V111.742C50.3728 110.888 50.3382 109.917 50.3382 109.917L53.8362 115.391H55.7526Z" fill="white"></path></g><g filter="url(#filter10_dd_2146_66668)"><rect x="89.3799" y="88.1233" width="49.2092" height="49.2092" rx="4.92092" fill="#2FB2AF"></rect><path d="M120.445 125.801L107.583 120.129H115.9L120.445 125.801Z" fill="white"></path><path d="M112.449 114.346L121.566 125.69L117.94 108.39L112.449 114.346Z" fill="white"></path><path d="M100.452 102.271L111.794 113.682L117.286 107.726L100.452 102.271Z" fill="white"></path><path d="M122.284 102.393L118.032 107.009L113.94 105.669L122.284 102.393Z" fill="white"></path><path d="M123.19 102.786L120.778 105.276L127.348 105.385L123.19 102.786Z" fill="white"></path></g><g filter="url(#filter11_dd_2146_66668)"><rect x="233.708" y="88.1233" width="49.2092" height="49.2092" rx="4.92092" fill="white"></rect><path fill-rule="evenodd" clip-rule="evenodd" d="M243.686 113.768C243.694 113.68 243.758 113.608 243.845 113.608H244.636C244.723 113.608 244.794 113.68 244.794 113.768C244.794 114.836 244.003 115.593 242.911 115.593C241.82 115.593 241.139 114.788 241.028 113.832C240.949 113.162 240.949 112.269 241.028 111.6C241.139 110.643 241.82 109.838 242.911 109.838C244.003 109.838 244.794 110.595 244.794 111.663C244.794 111.751 244.723 111.823 244.636 111.823H243.845C243.758 111.823 243.694 111.751 243.686 111.663C243.655 111.249 243.362 110.962 242.911 110.962C242.429 110.962 242.183 111.249 242.144 111.6C242.065 112.269 242.065 113.162 242.144 113.832C242.183 114.182 242.429 114.469 242.911 114.469C243.362 114.469 243.655 114.182 243.686 113.768ZM247.434 112.078C247.434 112.126 247.466 112.158 247.513 112.158H248.716C248.763 112.158 248.795 112.126 248.795 112.078V110.085C248.795 109.997 248.866 109.926 248.953 109.926H249.744C249.831 109.926 249.902 109.997 249.902 110.085V115.346C249.902 115.434 249.831 115.505 249.744 115.505H248.953C248.866 115.505 248.795 115.434 248.795 115.346V113.353C248.795 113.306 248.763 113.274 248.716 113.274H247.513C247.466 113.274 247.434 113.306 247.434 113.353V115.346C247.434 115.434 247.324 115.505 247.237 115.505H246.485C246.398 115.505 246.327 115.434 246.327 115.346V110.085C246.327 109.997 246.398 109.926 246.485 109.926H247.276C247.363 109.926 247.434 109.997 247.434 110.085V112.078ZM252.393 115.386C252.377 115.458 252.314 115.505 252.242 115.505H251.412C251.285 115.505 251.238 115.418 251.254 115.346L252.67 110.045C252.686 109.974 252.749 109.926 252.82 109.926H253.88C253.951 109.926 254.014 109.974 254.03 110.045L255.438 115.346C255.454 115.418 255.407 115.505 255.28 115.505H254.45C254.378 115.505 254.323 115.458 254.299 115.386L254.054 114.565C254.038 114.501 254.006 114.446 253.935 114.446H252.733C252.662 114.446 252.63 114.493 252.614 114.565L252.393 115.386ZM252.915 113.242C252.899 113.306 252.931 113.329 252.978 113.329H253.706C253.753 113.329 253.785 113.306 253.769 113.242L253.389 111.329C253.382 111.305 253.374 111.297 253.35 111.297H253.334C253.31 111.297 253.302 111.305 253.294 111.329L252.915 113.242ZM258.055 113.274C258.008 113.274 257.976 113.306 257.976 113.353V115.346C257.976 115.434 257.905 115.505 257.818 115.505H257.027C256.94 115.505 256.869 115.434 256.869 115.346V110.085C256.869 109.997 256.94 109.926 257.027 109.926H258.767C259.677 109.926 260.428 110.683 260.428 111.6C260.428 112.213 260.168 112.628 259.606 113.01C259.495 113.09 259.503 113.154 259.558 113.274L260.405 115.266C260.46 115.386 260.412 115.505 260.254 115.505H259.44C259.313 115.505 259.249 115.442 259.21 115.346L258.403 113.377C258.387 113.337 258.348 113.274 258.261 113.274H258.055ZM258.055 111.041C258.008 111.041 257.976 111.073 257.976 111.121V112.078C257.976 112.126 258.008 112.158 258.055 112.158H258.767C259.068 112.158 259.321 111.91 259.321 111.6C259.321 111.297 259.068 111.041 258.767 111.041H258.055ZM261.879 111.041C261.792 111.041 261.721 110.97 261.721 110.882V110.085C261.721 109.997 261.792 109.926 261.879 109.926H265.281C265.368 109.926 265.439 109.997 265.439 110.085V110.882C265.439 110.97 265.368 111.041 265.281 111.041H264.213C264.165 111.041 264.134 111.073 264.134 111.121V115.346C264.134 115.434 264.062 115.505 263.976 115.505H263.185C263.097 115.505 263.026 115.434 263.026 115.346V111.121C263.026 111.073 262.994 111.041 262.947 111.041H261.879ZM268.037 111.081C268.037 111.034 268.005 111.002 267.958 111.002H267.167C267.08 111.002 267.009 110.93 267.009 110.842V110.085C267.009 109.997 267.08 109.926 267.167 109.926H270.014C270.102 109.926 270.173 109.997 270.173 110.085V110.842C270.173 110.93 270.102 111.002 270.014 111.002H269.224C269.176 111.002 269.144 111.034 269.144 111.081V114.349C269.144 114.397 269.176 114.429 269.224 114.429H270.094C270.181 114.429 270.252 114.501 270.252 114.589V115.346C270.252 115.434 270.181 115.505 270.094 115.505H267.088C267 115.505 266.93 115.434 266.93 115.346V114.589C266.93 114.501 267 114.429 267.088 114.429H267.958C268.005 114.429 268.037 114.397 268.037 114.349V111.081ZM275.476 111.6C275.555 112.269 275.555 113.162 275.476 113.832C275.365 114.788 274.685 115.593 273.593 115.593C272.502 115.593 271.821 114.788 271.711 113.832C271.631 113.162 271.631 112.269 271.711 111.6C271.821 110.643 272.502 109.838 273.593 109.838C274.685 109.838 275.365 110.643 275.476 111.6ZM272.826 111.6C272.747 112.269 272.747 113.162 272.826 113.832C272.866 114.182 273.111 114.469 273.593 114.469C274.076 114.469 274.321 114.182 274.361 113.832C274.44 113.162 274.44 112.269 274.361 111.6C274.321 111.249 274.076 110.962 273.593 110.962C273.111 110.962 272.866 111.249 272.826 111.6Z" fill="#222222"></path></g><g filter="url(#filter12_dd_2146_66668)"><rect x="161.544" y="88.1233" width="49.2092" height="49.2092" rx="4.92092" fill="#5497D7"></rect><path d="M193.212 111.743C191.335 109.681 189.051 108.65 186.336 108.65C184.712 108.675 183.266 109.002 181.971 109.681V104.703H176.922V117.928V117.953C176.922 119.486 177.277 120.92 178.013 122.277C178.8 123.761 179.916 124.942 181.388 125.847C182.91 126.753 184.534 127.23 186.336 127.23C188.087 127.23 189.711 126.778 191.182 125.873C192.578 125.018 193.695 123.861 194.507 122.403C195.293 120.995 195.674 119.562 195.674 118.078C195.648 115.589 194.836 113.503 193.212 111.743ZM189.482 120.92C188.645 121.875 187.605 122.353 186.311 122.353C185.169 122.353 184.179 121.95 183.367 121.171C182.479 120.316 182.022 119.26 182.022 117.953C182.022 116.821 182.352 115.866 183.037 115.112C183.925 114.056 185.042 113.528 186.336 113.528C187.376 113.553 188.264 113.905 189.076 114.559C190.117 115.439 190.65 116.595 190.65 117.978C190.599 119.059 190.218 120.04 189.482 120.92Z" fill="white"></path><path d="M181.971 101.334H176.922V103.773H181.971V101.334Z" fill="white"></path><path d="M181.971 97.9651H176.922V100.404H181.971V97.9651Z" fill="white"></path></g><g filter="url(#filter13_dd_2146_66668)"><rect x="306.23" y="88.1233" width="49.2092" height="49.2092" rx="4.92092" fill="#009845"></rect><path d="M343.561 121.71L340.141 118.889C341.338 117.008 342.022 114.786 342.022 112.478C342.022 105.811 336.637 100.426 329.969 100.426C323.302 100.426 317.917 105.811 317.917 112.478C317.917 119.145 323.302 124.531 329.969 124.531C332.534 124.531 334.927 123.676 336.893 122.308L340.483 125.3C340.483 125.3 340.996 125.727 341.509 125.214L343.646 122.65C343.646 122.736 344.073 122.137 343.561 121.71ZM337.406 112.478C337.406 116.581 334.072 119.915 329.969 119.915C325.867 119.915 322.533 116.581 322.533 112.478C322.533 108.375 325.867 105.041 329.969 105.041C334.072 105.041 337.406 108.375 337.406 112.478Z" fill="white"></path><path d="M325.182 112.481C325.182 109.831 327.319 107.694 329.969 107.694C332.619 107.694 334.756 109.831 334.756 112.481C334.756 115.13 332.619 117.267 329.969 117.267C327.319 117.182 325.182 115.045 325.182 112.481Z" fill="white"></path><path d="M342.669 103.261H343.022C343.227 103.261 343.371 103.217 343.371 102.976C343.371 102.774 343.217 102.696 343.022 102.696H342.669V103.261ZM342.669 104.108H342.497V102.545H343.063C343.334 102.545 343.543 102.682 343.543 102.976C343.543 103.223 343.409 103.388 343.172 103.412L343.611 104.108H343.399L342.984 103.412H342.669V104.108ZM342.964 102.219C342.356 102.219 341.887 102.713 341.887 103.33C341.887 103.95 342.35 104.441 342.964 104.441C343.577 104.441 344.04 103.95 344.04 103.33C344.04 102.713 343.577 102.219 342.964 102.219ZM341.681 103.33C341.681 102.62 342.261 102.047 342.964 102.047C343.673 102.047 344.246 102.627 344.246 103.33C344.246 104.033 343.673 104.612 342.964 104.612C342.261 104.612 341.681 104.033 341.681 103.33Z" fill="white"></path></g><g filter="url(#filter14_dd_2146_66668)"><rect x="54" y="288.791" width="49.2092" height="49.2092" rx="4.92092" fill="#5B6FAD"></rect><path d="M83.1241 312.734H79.4291V308.643H77.9743V312.734H74.2749V314.187H77.9743V318.278H79.4291V314.187H83.1241V312.734Z" fill="white"></path><path d="M75.6887 319.411H72.3775V315.747H71.1235V319.411H67.8079V320.524H71.1235V324.188H72.3775V320.524H75.6887V319.411Z" fill="white"></path><path d="M89.5913 306.307H86.2801V302.629H85.0261V306.307H81.7104V307.424H85.0261V311.07H86.2801V307.424H89.5913V306.307Z" fill="white"></path><path d="M81.5059 323.477H79.2613V320.92H78.1903V323.477H75.9412V324.462H78.1903V327.014H79.2613V324.462H81.5059V323.477Z" fill="white"></path><path d="M75.6887 306.307H72.3373V302.629H71.1637V306.307H67.8079V307.392H71.1637V311.07H72.3373V307.392H75.6887V306.307Z" fill="white"></path><path d="M92.1373 312.961H89.8882V310.409H88.8172V312.961H86.5681V313.947H88.8172V316.503H89.8882V313.947H92.1373V312.961Z" fill="white"></path><path fill-rule="evenodd" clip-rule="evenodd" d="M89.5913 319.411H86.2801V315.747H85.0261V319.411H81.7104V320.524H85.0261V324.188H86.2801V320.524H89.5913V319.411Z" fill="white"></path><path d="M78.3224 300.018V302.524H76.1001V303.283H78.3224V305.789H79.1212V303.283H81.348V302.524H79.1212V300.018H78.3224Z" fill="white"></path><path d="M70.4855 313.063H68.2542V310.606H67.4688V313.063H65.2375V313.853L67.4688 313.839V316.309H68.2542V313.835L70.4855 313.821V313.063Z" fill="white"></path></g><g filter="url(#filter15_dd_2146_66668)"><rect x="125.826" y="288.791" width="49.2092" height="49.2092" rx="4.92092" fill="white"></rect><path d="M156.582 312.203C156.824 311.085 158.087 310.063 159.157 309.821C159.642 309.773 160.227 309.676 160.615 309.87L156.582 312.203Z" fill="#E12130"></path><path d="M167.178 309.77L168.486 311.51H165.765C165.571 311.51 165.474 311.655 165.426 311.849C165.396 311.959 165.409 312.076 165.463 312.176C165.517 312.276 165.608 312.352 165.717 312.386L168.002 313.529H163.965C163.689 313.28 163.488 312.959 163.385 312.602C163.282 312.246 163.282 311.867 163.383 311.51C163.47 311.131 163.655 310.782 163.92 310.499C164.185 310.215 164.521 310.007 164.893 309.895C165.112 309.819 165.34 309.77 165.571 309.75L167.178 309.77Z" fill="#E12130"></path><path d="M156.285 309.871V312.398L154.78 313.274L154.392 313.125V309.871H156.285Z" fill="#E12130"></path><path d="M149.532 309.871H151.281L153.856 313.323L153.759 313.517L151.62 313.468L151.281 313.028V313.517H149.532V309.871Z" fill="#E12130"></path><path d="M156.287 313.515H154.975L156.287 312.735V313.515Z" fill="#E12130"></path><path d="M141.034 313.807C141.034 314.635 140.84 316.044 139.48 315.995H139.528C138.168 316.044 137.974 314.635 137.974 313.807H136.077C136.077 314.689 136.295 315.557 136.71 316.334H134.51C134.215 316.334 133.876 316.286 133.537 316.286C132.274 316.14 132.225 313.807 132.225 313.807H130.134C130.095 314.993 130.493 316.153 131.252 317.065C132.031 317.973 133.101 318.183 134.268 318.232H136.844V316.48C137.046 316.715 137.273 316.928 137.522 317.113C138.013 317.46 138.59 317.666 139.19 317.709C139.79 317.751 140.39 317.629 140.925 317.356C142.237 316.726 142.822 315.361 142.871 314.001C143.113 316.286 144.038 317.743 147.312 317.549C148.002 317.209 148.668 316.819 149.302 316.383V313.807H147.493V315.955H147.049C146.591 316.011 146.125 315.961 145.689 315.809C144.881 315.466 144.817 314.546 144.768 313.815L141.034 313.807Z" fill="#E12130"></path><path d="M151.281 315.264L149.532 316.286V313.807H151.281V315.264Z" fill="#E12130"></path><path d="M152.495 314.923L153.904 314.096L154.147 314.193V317.548L152.495 314.923Z" fill="#E12130"></path><path d="M154.538 314.193L156.286 315.263V317.548H154.538V314.193Z" fill="#E12130"></path><path d="M160.226 317.644C159.457 317.787 158.663 317.644 157.993 317.241C157.324 316.837 156.825 316.202 156.592 315.456L160.226 317.644Z" fill="#E12130"></path><path d="M151.281 317.548H149.582V316.623L151.281 315.655V317.548Z" fill="#E12130"></path><path d="M152.35 314.683L151.866 313.807H153.808L152.35 314.683Z" fill="#E12130"></path><path d="M134.119 309.09C133.481 309.113 132.854 309.262 132.274 309.526C130.768 310.301 130.231 311.916 130.134 313.53H132.225C132.262 313.123 132.327 312.718 132.419 312.319C132.556 311.665 133.101 310.939 133.683 310.939H136.844C136.35 311.714 136.08 312.611 136.064 313.53H137.962C138.01 312.703 138.204 311.391 139.516 311.391H139.468C140.78 311.391 140.974 312.703 141.022 313.53H144.768C144.758 313.085 144.823 312.641 144.962 312.218C145.038 312.001 145.174 311.809 145.355 311.666C145.536 311.523 145.754 311.434 145.984 311.411H148.898L147.732 309.869C146.274 309.869 144.571 309.772 143.598 311.08C143.141 311.756 142.889 312.549 142.871 313.365C142.844 312.889 142.769 312.417 142.649 311.956C142.442 311.384 142.083 310.879 141.612 310.495C141.141 310.11 140.574 309.86 139.972 309.772C139.398 309.687 138.811 309.75 138.267 309.954C137.724 310.158 137.241 310.497 136.864 310.939C136.375 310.353 135.939 309.728 135.455 309.09H134.119Z" fill="#E12130"></path><path d="M156.286 314.829L154.829 313.936V313.791H158.281C158.281 314.619 158.474 316.028 159.786 315.979C161.147 316.028 161.296 314.619 161.296 313.791H163.238C163.224 314.421 163.109 315.046 162.899 315.64V315.688H166.468C166.555 315.661 166.635 315.617 166.704 315.558C166.774 315.499 166.831 315.427 166.871 315.345C166.892 315.288 166.9 315.227 166.896 315.167C166.892 315.106 166.876 315.047 166.849 314.993C166.822 314.939 166.784 314.891 166.738 314.851C166.692 314.812 166.639 314.782 166.581 314.764C165.903 314.473 165.123 314.082 164.441 313.791H168.333C168.775 314.321 169 314.999 168.963 315.688C168.486 317.646 166.871 317.57 166.871 317.57H162.834V315.753L162.786 315.898C162.357 316.701 161.629 317.301 160.759 317.57L156.432 314.974C156.375 314.78 156.375 314.538 156.335 314.34L156.286 314.829Z" fill="#E12130"></path><path d="M161.297 313.531C161.297 312.703 161.051 311.391 159.787 311.391C158.523 311.391 158.281 312.687 158.281 313.531H156.481C156.441 313.222 156.459 312.909 156.533 312.607L161.051 310.015C163.142 310.838 163.239 313.127 163.239 313.531H161.297Z" fill="#E12130"></path><path d="M170.238 310.787C170.222 311.009 170.124 311.217 169.962 311.368C169.799 311.52 169.586 311.604 169.364 311.604C169.141 311.604 168.928 311.52 168.765 311.368C168.603 311.217 168.505 311.009 168.49 310.787C168.505 310.566 168.603 310.358 168.765 310.207C168.928 310.055 169.141 309.971 169.364 309.971C169.586 309.971 169.799 310.055 169.962 310.207C170.124 310.358 170.222 310.566 170.238 310.787ZM168.683 310.787C168.676 310.881 168.688 310.975 168.719 311.064C168.75 311.153 168.799 311.234 168.863 311.303C168.927 311.372 169.004 311.427 169.09 311.465C169.177 311.503 169.27 311.522 169.364 311.522C169.458 311.522 169.551 311.503 169.637 311.465C169.723 311.427 169.8 311.372 169.864 311.303C169.928 311.234 169.977 311.153 170.008 311.064C170.039 310.975 170.051 310.881 170.044 310.787C170.051 310.694 170.039 310.599 170.008 310.511C169.977 310.422 169.928 310.34 169.864 310.271C169.8 310.202 169.723 310.147 169.637 310.11C169.551 310.072 169.458 310.053 169.364 310.053C169.27 310.053 169.177 310.072 169.09 310.11C169.004 310.147 168.927 310.202 168.863 310.271C168.799 310.34 168.75 310.422 168.719 310.511C168.688 310.599 168.676 310.694 168.683 310.787ZM169.366 310.703C169.462 310.703 169.511 310.654 169.511 310.606C169.511 310.557 169.462 310.46 169.313 310.46H169.168V310.703H169.366ZM169.559 311.24L169.462 311.094C169.411 311.041 169.378 310.973 169.366 310.9C169.346 310.882 169.322 310.868 169.296 310.86C169.27 310.852 169.243 310.849 169.216 310.852H169.168V311.256H168.974V310.299H169.414C169.608 310.299 169.705 310.396 169.705 310.541C169.702 310.61 169.677 310.676 169.633 310.729C169.59 310.783 169.529 310.82 169.462 310.836C169.559 310.836 169.559 310.884 169.656 311.03L169.753 311.223L169.559 311.24Z" fill="#E12130"></path></g><g filter="url(#filter16_dd_2146_66668)"><rect x="197.651" y="288.791" width="49.2092" height="49.2092" rx="4.92092" fill="#091B36"></rect><path d="M214.428 317.086V309.09H212.559V312.184H209.362V309.09H207.493V317.086H209.362V313.737H212.559V317.086H214.428Z" fill="white"></path><path d="M221.52 310.573V309.09H215.542V310.573H217.596V317.086H219.466V310.573H221.52Z" fill="white"></path><path d="M231.518 317.086L230.929 309.09H228.564L226.925 314.351H226.902L225.241 309.09H222.887L222.287 317.086H224.121L224.41 311.639H224.444L226.164 317.086H227.641L229.349 311.639H229.372L229.683 317.086H231.518Z" fill="white"></path><path d="M237.634 317.086V315.533H234.876V309.09H233.018V317.086H237.634Z" fill="white"></path></g><g filter="url(#filter17_dd_2146_66668)"><rect x="269.477" y="288.791" width="49.2092" height="49.2092" rx="4.92092" fill="#D8232E"></rect><path d="M287.916 313.069C287.916 315.956 287.916 318.843 287.916 321.73C287.916 321.95 287.86 322.007 287.639 322.007C285.98 321.998 284.321 321.998 282.662 322.007C282.465 322.007 282.395 321.97 282.395 321.753C282.4 315.972 282.4 310.193 282.395 304.416C282.395 304.216 282.453 304.167 282.646 304.169C284.32 304.176 285.995 304.176 287.67 304.169C287.878 304.169 287.91 304.241 287.91 304.424C287.911 307.301 287.913 310.183 287.916 313.069Z" fill="white"></path><path d="M296.835 313.074C296.835 315.96 296.835 318.845 296.835 321.73C296.835 321.947 296.782 322.007 296.537 322.007C294.748 321.996 292.965 321.996 291.187 322.007C290.965 322.007 290.889 321.972 290.889 321.741C290.897 315.97 290.897 310.199 290.889 304.428C290.889 304.22 290.949 304.167 291.171 304.169C292.954 304.177 294.736 304.177 296.519 304.169C296.753 304.169 296.831 304.212 296.829 304.446C296.831 307.319 296.835 310.197 296.835 313.074Z" fill="white"></path><path d="M299.9 304.169C300.282 304.57 300.657 304.979 301.048 305.369C302.431 306.749 303.819 308.125 305.211 309.497C305.249 309.532 305.28 309.575 305.3 309.623C305.321 309.671 305.331 309.722 305.33 309.774C305.33 313.781 305.33 317.788 305.33 321.795C305.33 321.951 305.292 322.007 305.124 322.007C303.42 322.001 301.714 322.001 300.007 322.007C299.855 322.007 299.792 321.963 299.812 321.811C299.812 321.77 299.812 321.728 299.812 321.687V304.226L299.9 304.169Z" fill="white"></path></g><g filter="url(#filter18_dd_2146_66668)"><rect x="54" y="20" width="49.2092" height="49.2092" rx="4.92092" fill="white"></rect><mask id="mask0_2146_66668" style="mask-type:alpha" maskUnits="userSpaceOnUse" x="69" y="31" width="19" height="27"><path d="M79.6959 32.8496C79.6959 32.264 80.1512 31.7892 80.7128 31.7892H86.8143C87.3759 31.7892 87.8312 32.264 87.8312 32.8496V56.1789C87.8312 56.7646 87.3759 57.2393 86.8143 57.2393H70.5438C69.9822 57.2393 69.5269 56.7646 69.5269 56.1789V45.5747C69.5269 44.989 69.9822 44.5143 70.5438 44.5143H74.6114V39.2121C74.6114 38.6265 75.0667 38.1517 75.6283 38.1517H79.6959V32.8496Z" fill="white"></path></mask><g mask="url(#mask0_2146_66668)"><path d="M87.832 31.7894V57.2395H79.6968V31.7894H87.832Z" fill="url(#paint2_linear_2146_66668)"></path><g filter="url(#filter19_f_2146_66668)"><path d="M82.7481 39.3207V57.3479H74.6128V38.2603H81.7311C82.2928 38.2603 82.7481 38.735 82.7481 39.3207Z" fill="black" fill-opacity="0.2"></path></g><g filter="url(#filter20_f_2146_66668)"><path d="M82.7481 39.7418V57.769H74.6128V38.6814H81.7311C82.2928 38.6814 82.7481 39.1562 82.7481 39.7418Z" fill="black" fill-opacity="0.18"></path></g><path d="M82.7481 39.2136V57.2408H74.6128V38.1532H81.7311C82.2928 38.1532 82.7481 38.628 82.7481 39.2136Z" fill="url(#paint3_linear_2146_66668)"></path><path d="M69.5283 44.5131V57.2382H77.6636V45.5735C77.6636 44.9879 77.2083 44.5131 76.6467 44.5131H69.5283Z" fill="url(#paint4_linear_2146_66668)"></path></g></g><g filter="url(#filter21_dd_2146_66668)"><rect x="125.826" y="20" width="49.2092" height="49.2092" rx="4.92092" fill="url(#paint5_linear_2146_66668)"></rect><path d="M155.014 51.3347V52.6091H155.204V52.0561H155.417L155.761 52.6091H155.975L155.607 52.0561C155.791 52.033 155.939 51.9247 155.939 51.6954C155.939 51.4442 155.787 51.3347 155.488 51.3347H155.014ZM155.204 51.503H155.465C155.593 51.503 155.737 51.5242 155.737 51.6833C155.737 51.8823 155.591 51.8998 155.429 51.8998H155.204V51.503ZM155.441 50.8658C154.839 50.8658 154.326 51.336 154.326 51.9719C154.326 52.6124 154.839 53.09 155.441 53.09C156.034 53.09 156.532 52.6125 156.532 51.9719C156.532 51.336 156.034 50.8658 155.441 50.8658ZM155.441 51.0462C155.932 51.0462 156.318 51.4483 156.318 51.9719C156.318 52.5044 155.932 52.8976 155.441 52.8976C154.942 52.8976 154.54 52.5044 154.54 51.9719C154.54 51.4483 154.942 51.0462 155.441 51.0462Z" fill="white"></path><path fill-rule="evenodd" clip-rule="evenodd" d="M133.207 53.078V35.9931H167.273L150.422 53.078H133.207ZM152.884 44.1678H153.622C154.608 44.1678 155.392 43.8369 155.392 42.7813C155.392 41.7591 154.608 41.4298 153.622 41.4298H152.884V44.1678ZM144.6 45.9321C144.917 46.0528 145.284 46.1252 145.675 46.1252H145.676C146.058 46.1252 146.415 46.0552 146.728 45.9413L145.687 42.5312H145.664L144.6 45.9321ZM150.073 39.2054H153.426L153.426 39.2089C156.631 39.2089 158.137 40.3665 158.137 42.8902C158.137 45.1576 156.586 46.5087 153.968 46.5087H152.884V49.7749H147.916L147.424 48.213C146.899 48.3884 146.305 48.4846 145.675 48.4846C145.03 48.4846 144.421 48.3815 143.886 48.198L143.375 49.7749H140.33L140.665 48.8608L140.542 48.9697C139.783 49.5883 138.833 49.9288 137.656 49.9519H137.482C136.13 49.9519 134.805 49.5741 133.686 48.9282L134.721 46.8419C135.844 47.5144 136.548 47.6644 137.499 47.6452C137.991 47.634 138.348 47.5436 138.58 47.2993C138.72 47.1531 138.793 46.9681 138.8 46.7707C138.809 46.2287 138.049 45.9744 137.117 45.6831C136.362 45.4431 135.507 45.1226 134.837 44.6248C134.045 44.0335 133.667 43.2941 133.686 42.2523C133.699 41.4918 133.976 40.8085 134.489 40.2684C135.226 39.4963 136.415 39.0246 137.842 39.0246H137.85C139.073 39.0273 140.569 39.3782 141.648 39.9372L140.483 41.9946C139.3 41.4148 138.704 41.3594 138.029 41.3248C137.027 41.2706 136.519 41.6337 136.511 42.0253C136.503 42.5043 137.463 42.9367 138.364 43.231C139.733 43.6707 141.473 44.2605 141.738 45.964L144.24 39.2054H147.144L150.073 47.2893V39.2054Z" fill="white"></path></g><g filter="url(#filter22_dd_2146_66668)"><rect x="197.651" y="20" width="49.2092" height="49.2092" rx="4.92092" fill="#03B384"></rect><path d="M211.612 54.0321C211.612 47.7847 211.612 41.6253 211.612 35.3779C215.231 37.4457 218.807 39.5135 222.382 41.5814C225.957 39.5135 229.489 37.4897 233.108 35.3779C233.108 41.6253 233.108 47.7848 233.108 53.9881C231.298 52.9762 229.533 51.9643 227.767 50.9084C227.767 48.8406 227.767 46.8168 227.767 44.705C225.913 45.7609 224.148 46.7729 222.382 47.8287C220.616 46.8168 218.895 45.8049 217.129 44.8371C217.085 44.881 217.041 44.881 217.041 44.881C217.041 44.881 216.997 44.881 216.997 44.925C216.997 44.969 216.953 45.013 216.953 45.013C216.953 46.9928 216.953 48.9286 216.953 50.9525C215.231 51.9643 213.465 52.9762 211.612 54.0321Z" fill="white"></path></g><g filter="url(#filter23_dd_2146_66668)"><rect x="269.477" y="20" width="49.2092" height="49.2092" rx="4.92092" fill="#5FD1CE"></rect><path fill-rule="evenodd" clip-rule="evenodd" d="M280.549 47.6061L294.214 55.5318L307.947 47.6061L294.282 39.6121L280.549 47.6061ZM284.102 47.6061L294.282 41.7302L304.463 47.6061L294.282 53.4137L284.102 47.6061Z" fill="#0DA2A3"></path><path fill-rule="evenodd" clip-rule="evenodd" d="M294.283 33.4639L280.55 41.3895L294.215 49.3152L307.948 41.3895L294.283 33.4639ZM284.103 41.3895L294.283 35.5136L304.464 41.3895L294.283 47.2655L284.103 41.3895Z" fill="white"></path></g></g><defs><filter id="filter0_dd_2146_66668" x="9.61862" y="215.997" width="63.972" height="63.972" filterUnits="userSpaceOnUse" color-interpolation-filters="sRGB"><feFlood flood-opacity="0" result="BackgroundImageFix"></feFlood><feColorMatrix in="SourceAlpha" type="matrix" values="0 0 0 0 0 0 0 0 0 0 0 0 0 0 0 0 0 0 127 0" result="hardAlpha"></feColorMatrix><feOffset dy="2.46046"></feOffset><feGaussianBlur stdDeviation="3.07558"></feGaussianBlur><feColorMatrix type="matrix" values="0 0 0 0 0.607843 0 0 0 0 0.67451 0 0 0 0 0.737255 0 0 0 0.35 0"></feColorMatrix><feBlend mode="normal" in2="BackgroundImageFix" result="effect1_dropShadow_2146_66668"></feBlend><feColorMatrix in="SourceAlpha" type="matrix" values="0 0 0 0 0 0 0 0 0 0 0 0 0 0 0 0 0 0 127 0" result="hardAlpha"></feColorMatrix><feOffset dy="1.23023"></feOffset><feGaussianBlur stdDeviation="3.69069"></feGaussianBlur><feColorMatrix type="matrix" values="0 0 0 0 0.89625 0 0 0 0 0.930414 0 0 0 0 0.995833 0 0 0 0.5 0"></feColorMatrix><feBlend mode="normal" in2="effect1_dropShadow_2146_66668" result="effect2_dropShadow_2146_66668"></feBlend><feBlend mode="normal" in="SourceGraphic" in2="effect2_dropShadow_2146_66668" result="shape"></feBlend></filter><filter id="filter1_dd_2146_66668" x="81.9985" y="215.997" width="63.972" height="63.972" filterUnits="userSpaceOnUse" color-interpolation-filters="sRGB"><feFlood flood-opacity="0" result="BackgroundImageFix"></feFlood><feColorMatrix in="SourceAlpha" type="matrix" values="0 0 0 0 0 0 0 0 0 0 0 0 0 0 0 0 0 0 127 0" result="hardAlpha"></feColorMatrix><feOffset dy="2.46046"></feOffset><feGaussianBlur stdDeviation="3.07558"></feGaussianBlur><feColorMatrix type="matrix" values="0 0 0 0 0.607843 0 0 0 0 0.67451 0 0 0 0 0.737255 0 0 0 0.35 0"></feColorMatrix><feBlend mode="normal" in2="BackgroundImageFix" result="effect1_dropShadow_2146_66668"></feBlend><feColorMatrix in="SourceAlpha" type="matrix" values="0 0 0 0 0 0 0 0 0 0 0 0 0 0 0 0 0 0 127 0" result="hardAlpha"></feColorMatrix><feOffset dy="1.23023"></feOffset><feGaussianBlur stdDeviation="3.69069"></feGaussianBlur><feColorMatrix type="matrix" values="0 0 0 0 0.89625 0 0 0 0 0.930414 0 0 0 0 0.995833 0 0 0 0.5 0"></feColorMatrix><feBlend mode="normal" in2="effect1_dropShadow_2146_66668" result="effect2_dropShadow_2146_66668"></feBlend><feBlend mode="normal" in="SourceGraphic" in2="effect2_dropShadow_2146_66668" result="shape"></feBlend></filter><filter id="filter2_dd_2146_66668" x="154.162" y="215.997" width="63.972" height="63.972" filterUnits="userSpaceOnUse" color-interpolation-filters="sRGB"><feFlood flood-opacity="0" result="BackgroundImageFix"></feFlood><feColorMatrix in="SourceAlpha" type="matrix" values="0 0 0 0 0 0 0 0 0 0 0 0 0 0 0 0 0 0 127 0" result="hardAlpha"></feColorMatrix><feOffset dy="2.46046"></feOffset><feGaussianBlur stdDeviation="3.07558"></feGaussianBlur><feColorMatrix type="matrix" values="0 0 0 0 0.607843 0 0 0 0 0.67451 0 0 0 0 0.737255 0 0 0 0.35 0"></feColorMatrix><feBlend mode="normal" in2="BackgroundImageFix" result="effect1_dropShadow_2146_66668"></feBlend><feColorMatrix in="SourceAlpha" type="matrix" values="0 0 0 0 0 0 0 0 0 0 0 0 0 0 0 0 0 0 127 0" result="hardAlpha"></feColorMatrix><feOffset dy="1.23023"></feOffset><feGaussianBlur stdDeviation="3.69069"></feGaussianBlur><feColorMatrix type="matrix" values="0 0 0 0 0.89625 0 0 0 0 0.930414 0 0 0 0 0.995833 0 0 0 0.5 0"></feColorMatrix><feBlend mode="normal" in2="effect1_dropShadow_2146_66668" result="effect2_dropShadow_2146_66668"></feBlend><feBlend mode="normal" in="SourceGraphic" in2="effect2_dropShadow_2146_66668" result="shape"></feBlend></filter><filter id="filter3_dd_2146_66668" x="226.326" y="215.997" width="63.972" height="63.972" filterUnits="userSpaceOnUse" color-interpolation-filters="sRGB"><feFlood flood-opacity="0" result="BackgroundImageFix"></feFlood><feColorMatrix in="SourceAlpha" type="matrix" values="0 0 0 0 0 0 0 0 0 0 0 0 0 0 0 0 0 0 127 0" result="hardAlpha"></feColorMatrix><feOffset dy="2.46046"></feOffset><feGaussianBlur stdDeviation="3.07558"></feGaussianBlur><feColorMatrix type="matrix" values="0 0 0 0 0.607843 0 0 0 0 0.67451 0 0 0 0 0.737255 0 0 0 0.35 0"></feColorMatrix><feBlend mode="normal" in2="BackgroundImageFix" result="effect1_dropShadow_2146_66668"></feBlend><feColorMatrix in="SourceAlpha" type="matrix" values="0 0 0 0 0 0 0 0 0 0 0 0 0 0 0 0 0 0 127 0" result="hardAlpha"></feColorMatrix><feOffset dy="1.23023"></feOffset><feGaussianBlur stdDeviation="3.69069"></feGaussianBlur><feColorMatrix type="matrix" values="0 0 0 0 0.89625 0 0 0 0 0.930414 0 0 0 0 0.995833 0 0 0 0.5 0"></feColorMatrix><feBlend mode="normal" in2="effect1_dropShadow_2146_66668" result="effect2_dropShadow_2146_66668"></feBlend><feBlend mode="normal" in="SourceGraphic" in2="effect2_dropShadow_2146_66668" result="shape"></feBlend></filter><filter id="filter4_dd_2146_66668" x="298.848" y="215.997" width="63.972" height="63.972" filterUnits="userSpaceOnUse" color-interpolation-filters="sRGB"><feFlood flood-opacity="0" result="BackgroundImageFix"></feFlood><feColorMatrix in="SourceAlpha" type="matrix" values="0 0 0 0 0 0 0 0 0 0 0 0 0 0 0 0 0 0 127 0" result="hardAlpha"></feColorMatrix><feOffset dy="2.46046"></feOffset><feGaussianBlur stdDeviation="3.07558"></feGaussianBlur><feColorMatrix type="matrix" values="0 0 0 0 0.607843 0 0 0 0 0.67451 0 0 0 0 0.737255 0 0 0 0.35 0"></feColorMatrix><feBlend mode="normal" in2="BackgroundImageFix" result="effect1_dropShadow_2146_66668"></feBlend><feColorMatrix in="SourceAlpha" type="matrix" values="0 0 0 0 0 0 0 0 0 0 0 0 0 0 0 0 0 0 127 0" result="hardAlpha"></feColorMatrix><feOffset dy="1.23023"></feOffset><feGaussianBlur stdDeviation="3.69069"></feGaussianBlur><feColorMatrix type="matrix" values="0 0 0 0 0.89625 0 0 0 0 0.930414 0 0 0 0 0.995833 0 0 0 0.5 0"></feColorMatrix><feBlend mode="normal" in2="effect1_dropShadow_2146_66668" result="effect2_dropShadow_2146_66668"></feBlend><feBlend mode="normal" in="SourceGraphic" in2="effect2_dropShadow_2146_66668" result="shape"></feBlend></filter><filter id="filter5_dd_2146_66668" x="46.6186" y="148.614" width="63.972" height="63.972" filterUnits="userSpaceOnUse" color-interpolation-filters="sRGB"><feFlood flood-opacity="0" result="BackgroundImageFix"></feFlood><feColorMatrix in="SourceAlpha" type="matrix" values="0 0 0 0 0 0 0 0 0 0 0 0 0 0 0 0 0 0 127 0" result="hardAlpha"></feColorMatrix><feOffset dy="2.46046"></feOffset><feGaussianBlur stdDeviation="3.07558"></feGaussianBlur><feColorMatrix type="matrix" values="0 0 0 0 0.607843 0 0 0 0 0.67451 0 0 0 0 0.737255 0 0 0 0.35 0"></feColorMatrix><feBlend mode="normal" in2="BackgroundImageFix" result="effect1_dropShadow_2146_66668"></feBlend><feColorMatrix in="SourceAlpha" type="matrix" values="0 0 0 0 0 0 0 0 0 0 0 0 0 0 0 0 0 0 127 0" result="hardAlpha"></feColorMatrix><feOffset dy="1.23023"></feOffset><feGaussianBlur stdDeviation="3.69069"></feGaussianBlur><feColorMatrix type="matrix" values="0 0 0 0 0.89625 0 0 0 0 0.930414 0 0 0 0 0.995833 0 0 0 0.5 0"></feColorMatrix><feBlend mode="normal" in2="effect1_dropShadow_2146_66668" result="effect2_dropShadow_2146_66668"></feBlend><feBlend mode="normal" in="SourceGraphic" in2="effect2_dropShadow_2146_66668" result="shape"></feBlend></filter><filter id="filter6_dd_2146_66668" x="118.444" y="148.614" width="63.972" height="63.972" filterUnits="userSpaceOnUse" color-interpolation-filters="sRGB"><feFlood flood-opacity="0" result="BackgroundImageFix"></feFlood><feColorMatrix in="SourceAlpha" type="matrix" values="0 0 0 0 0 0 0 0 0 0 0 0 0 0 0 0 0 0 127 0" result="hardAlpha"></feColorMatrix><feOffset dy="2.46046"></feOffset><feGaussianBlur stdDeviation="3.07558"></feGaussianBlur><feColorMatrix type="matrix" values="0 0 0 0 0.607843 0 0 0 0 0.67451 0 0 0 0 0.737255 0 0 0 0.35 0"></feColorMatrix><feBlend mode="normal" in2="BackgroundImageFix" result="effect1_dropShadow_2146_66668"></feBlend><feColorMatrix in="SourceAlpha" type="matrix" values="0 0 0 0 0 0 0 0 0 0 0 0 0 0 0 0 0 0 127 0" result="hardAlpha"></feColorMatrix><feOffset dy="1.23023"></feOffset><feGaussianBlur stdDeviation="3.69069"></feGaussianBlur><feColorMatrix type="matrix" values="0 0 0 0 0.89625 0 0 0 0 0.930414 0 0 0 0 0.995833 0 0 0 0.5 0"></feColorMatrix><feBlend mode="normal" in2="effect1_dropShadow_2146_66668" result="effect2_dropShadow_2146_66668"></feBlend><feBlend mode="normal" in="SourceGraphic" in2="effect2_dropShadow_2146_66668" result="shape"></feBlend></filter><filter id="filter7_dd_2146_66668" x="190.27" y="148.614" width="63.972" height="63.972" filterUnits="userSpaceOnUse" color-interpolation-filters="sRGB"><feFlood flood-opacity="0" result="BackgroundImageFix"></feFlood><feColorMatrix in="SourceAlpha" type="matrix" values="0 0 0 0 0 0 0 0 0 0 0 0 0 0 0 0 0 0 127 0" result="hardAlpha"></feColorMatrix><feOffset dy="2.46046"></feOffset><feGaussianBlur stdDeviation="3.07558"></feGaussianBlur><feColorMatrix type="matrix" values="0 0 0 0 0.607843 0 0 0 0 0.67451 0 0 0 0 0.737255 0 0 0 0.35 0"></feColorMatrix><feBlend mode="normal" in2="BackgroundImageFix" result="effect1_dropShadow_2146_66668"></feBlend><feColorMatrix in="SourceAlpha" type="matrix" values="0 0 0 0 0 0 0 0 0 0 0 0 0 0 0 0 0 0 127 0" result="hardAlpha"></feColorMatrix><feOffset dy="1.23023"></feOffset><feGaussianBlur stdDeviation="3.69069"></feGaussianBlur><feColorMatrix type="matrix" values="0 0 0 0 0.89625 0 0 0 0 0.930414 0 0 0 0 0.995833 0 0 0 0.5 0"></feColorMatrix><feBlend mode="normal" in2="effect1_dropShadow_2146_66668" result="effect2_dropShadow_2146_66668"></feBlend><feBlend mode="normal" in="SourceGraphic" in2="effect2_dropShadow_2146_66668" result="shape"></feBlend></filter><filter id="filter8_dd_2146_66668" x="262.096" y="148.614" width="63.972" height="63.972" filterUnits="userSpaceOnUse" color-interpolation-filters="sRGB"><feFlood flood-opacity="0" result="BackgroundImageFix"></feFlood><feColorMatrix in="SourceAlpha" type="matrix" values="0 0 0 0 0 0 0 0 0 0 0 0 0 0 0 0 0 0 127 0" result="hardAlpha"></feColorMatrix><feOffset dy="2.46046"></feOffset><feGaussianBlur stdDeviation="3.07558"></feGaussianBlur><feColorMatrix type="matrix" values="0 0 0 0 0.607843 0 0 0 0 0.67451 0 0 0 0 0.737255 0 0 0 0.35 0"></feColorMatrix><feBlend mode="normal" in2="BackgroundImageFix" result="effect1_dropShadow_2146_66668"></feBlend><feColorMatrix in="SourceAlpha" type="matrix" values="0 0 0 0 0 0 0 0 0 0 0 0 0 0 0 0 0 0 127 0" result="hardAlpha"></feColorMatrix><feOffset dy="1.23023"></feOffset><feGaussianBlur stdDeviation="3.69069"></feGaussianBlur><feColorMatrix type="matrix" values="0 0 0 0 0.89625 0 0 0 0 0.930414 0 0 0 0 0.995833 0 0 0 0.5 0"></feColorMatrix><feBlend mode="normal" in2="effect1_dropShadow_2146_66668" result="effect2_dropShadow_2146_66668"></feBlend><feBlend mode="normal" in="SourceGraphic" in2="effect2_dropShadow_2146_66668" result="shape"></feBlend></filter><filter id="filter9_dd_2146_66668" x="9.61862" y="81.9721" width="63.972" height="63.972" filterUnits="userSpaceOnUse" color-interpolation-filters="sRGB"><feFlood flood-opacity="0" result="BackgroundImageFix"></feFlood><feColorMatrix in="SourceAlpha" type="matrix" values="0 0 0 0 0 0 0 0 0 0 0 0 0 0 0 0 0 0 127 0" result="hardAlpha"></feColorMatrix><feOffset dy="2.46046"></feOffset><feGaussianBlur stdDeviation="3.07558"></feGaussianBlur><feColorMatrix type="matrix" values="0 0 0 0 0.607843 0 0 0 0 0.67451 0 0 0 0 0.737255 0 0 0 0.35 0"></feColorMatrix><feBlend mode="normal" in2="BackgroundImageFix" result="effect1_dropShadow_2146_66668"></feBlend><feColorMatrix in="SourceAlpha" type="matrix" values="0 0 0 0 0 0 0 0 0 0 0 0 0 0 0 0 0 0 127 0" result="hardAlpha"></feColorMatrix><feOffset dy="1.23023"></feOffset><feGaussianBlur stdDeviation="3.69069"></feGaussianBlur><feColorMatrix type="matrix" values="0 0 0 0 0.89625 0 0 0 0 0.930414 0 0 0 0 0.995833 0 0 0 0.5 0"></feColorMatrix><feBlend mode="normal" in2="effect1_dropShadow_2146_66668" result="effect2_dropShadow_2146_66668"></feBlend><feBlend mode="normal" in="SourceGraphic" in2="effect2_dropShadow_2146_66668" result="shape"></feBlend></filter><filter id="filter10_dd_2146_66668" x="81.9985" y="81.9721" width="63.972" height="63.972" filterUnits="userSpaceOnUse" color-interpolation-filters="sRGB"><feFlood flood-opacity="0" result="BackgroundImageFix"></feFlood><feColorMatrix in="SourceAlpha" type="matrix" values="0 0 0 0 0 0 0 0 0 0 0 0 0 0 0 0 0 0 127 0" result="hardAlpha"></feColorMatrix><feOffset dy="2.46046"></feOffset><feGaussianBlur stdDeviation="3.07558"></feGaussianBlur><feColorMatrix type="matrix" values="0 0 0 0 0.607843 0 0 0 0 0.67451 0 0 0 0 0.737255 0 0 0 0.35 0"></feColorMatrix><feBlend mode="normal" in2="BackgroundImageFix" result="effect1_dropShadow_2146_66668"></feBlend><feColorMatrix in="SourceAlpha" type="matrix" values="0 0 0 0 0 0 0 0 0 0 0 0 0 0 0 0 0 0 127 0" result="hardAlpha"></feColorMatrix><feOffset dy="1.23023"></feOffset><feGaussianBlur stdDeviation="3.69069"></feGaussianBlur><feColorMatrix type="matrix" values="0 0 0 0 0.89625 0 0 0 0 0.930414 0 0 0 0 0.995833 0 0 0 0.5 0"></feColorMatrix><feBlend mode="normal" in2="effect1_dropShadow_2146_66668" result="effect2_dropShadow_2146_66668"></feBlend><feBlend mode="normal" in="SourceGraphic" in2="effect2_dropShadow_2146_66668" result="shape"></feBlend></filter><filter id="filter11_dd_2146_66668" x="226.326" y="81.9721" width="63.972" height="63.972" filterUnits="userSpaceOnUse" color-interpolation-filters="sRGB"><feFlood flood-opacity="0" result="BackgroundImageFix"></feFlood><feColorMatrix in="SourceAlpha" type="matrix" values="0 0 0 0 0 0 0 0 0 0 0 0 0 0 0 0 0 0 127 0" result="hardAlpha"></feColorMatrix><feOffset dy="2.46046"></feOffset><feGaussianBlur stdDeviation="3.07558"></feGaussianBlur><feColorMatrix type="matrix" values="0 0 0 0 0.607843 0 0 0 0 0.67451 0 0 0 0 0.737255 0 0 0 0.35 0"></feColorMatrix><feBlend mode="normal" in2="BackgroundImageFix" result="effect1_dropShadow_2146_66668"></feBlend><feColorMatrix in="SourceAlpha" type="matrix" values="0 0 0 0 0 0 0 0 0 0 0 0 0 0 0 0 0 0 127 0" result="hardAlpha"></feColorMatrix><feOffset dy="1.23023"></feOffset><feGaussianBlur stdDeviation="3.69069"></feGaussianBlur><feColorMatrix type="matrix" values="0 0 0 0 0.89625 0 0 0 0 0.930414 0 0 0 0 0.995833 0 0 0 0.5 0"></feColorMatrix><feBlend mode="normal" in2="effect1_dropShadow_2146_66668" result="effect2_dropShadow_2146_66668"></feBlend><feBlend mode="normal" in="SourceGraphic" in2="effect2_dropShadow_2146_66668" result="shape"></feBlend></filter><filter id="filter12_dd_2146_66668" x="154.162" y="81.9721" width="63.972" height="63.972" filterUnits="userSpaceOnUse" color-interpolation-filters="sRGB"><feFlood flood-opacity="0" result="BackgroundImageFix"></feFlood><feColorMatrix in="SourceAlpha" type="matrix" values="0 0 0 0 0 0 0 0 0 0 0 0 0 0 0 0 0 0 127 0" result="hardAlpha"></feColorMatrix><feOffset dy="2.46046"></feOffset><feGaussianBlur stdDeviation="3.07558"></feGaussianBlur><feColorMatrix type="matrix" values="0 0 0 0 0.607843 0 0 0 0 0.67451 0 0 0 0 0.737255 0 0 0 0.35 0"></feColorMatrix><feBlend mode="normal" in2="BackgroundImageFix" result="effect1_dropShadow_2146_66668"></feBlend><feColorMatrix in="SourceAlpha" type="matrix" values="0 0 0 0 0 0 0 0 0 0 0 0 0 0 0 0 0 0 127 0" result="hardAlpha"></feColorMatrix><feOffset dy="1.23023"></feOffset><feGaussianBlur stdDeviation="3.69069"></feGaussianBlur><feColorMatrix type="matrix" values="0 0 0 0 0.89625 0 0 0 0 0.930414 0 0 0 0 0.995833 0 0 0 0.5 0"></feColorMatrix><feBlend mode="normal" in2="effect1_dropShadow_2146_66668" result="effect2_dropShadow_2146_66668"></feBlend><feBlend mode="normal" in="SourceGraphic" in2="effect2_dropShadow_2146_66668" result="shape"></feBlend></filter><filter id="filter13_dd_2146_66668" x="298.848" y="81.9721" width="63.972" height="63.972" filterUnits="userSpaceOnUse" color-interpolation-filters="sRGB"><feFlood flood-opacity="0" result="BackgroundImageFix"></feFlood><feColorMatrix in="SourceAlpha" type="matrix" values="0 0 0 0 0 0 0 0 0 0 0 0 0 0 0 0 0 0 127 0" result="hardAlpha"></feColorMatrix><feOffset dy="2.46046"></feOffset><feGaussianBlur stdDeviation="3.07558"></feGaussianBlur><feColorMatrix type="matrix" values="0 0 0 0 0.607843 0 0 0 0 0.67451 0 0 0 0 0.737255 0 0 0 0.35 0"></feColorMatrix><feBlend mode="normal" in2="BackgroundImageFix" result="effect1_dropShadow_2146_66668"></feBlend><feColorMatrix in="SourceAlpha" type="matrix" values="0 0 0 0 0 0 0 0 0 0 0 0 0 0 0 0 0 0 127 0" result="hardAlpha"></feColorMatrix><feOffset dy="1.23023"></feOffset><feGaussianBlur stdDeviation="3.69069"></feGaussianBlur><feColorMatrix type="matrix" values="0 0 0 0 0.89625 0 0 0 0 0.930414 0 0 0 0 0.995833 0 0 0 0.5 0"></feColorMatrix><feBlend mode="normal" in2="effect1_dropShadow_2146_66668" result="effect2_dropShadow_2146_66668"></feBlend><feBlend mode="normal" in="SourceGraphic" in2="effect2_dropShadow_2146_66668" result="shape"></feBlend></filter><filter id="filter14_dd_2146_66668" x="46.6186" y="282.64" width="63.972" height="63.972" filterUnits="userSpaceOnUse" color-interpolation-filters="sRGB"><feFlood flood-opacity="0" result="BackgroundImageFix"></feFlood><feColorMatrix in="SourceAlpha" type="matrix" values="0 0 0 0 0 0 0 0 0 0 0 0 0 0 0 0 0 0 127 0" result="hardAlpha"></feColorMatrix><feOffset dy="2.46046"></feOffset><feGaussianBlur stdDeviation="3.07558"></feGaussianBlur><feColorMatrix type="matrix" values="0 0 0 0 0.607843 0 0 0 0 0.67451 0 0 0 0 0.737255 0 0 0 0.35 0"></feColorMatrix><feBlend mode="normal" in2="BackgroundImageFix" result="effect1_dropShadow_2146_66668"></feBlend><feColorMatrix in="SourceAlpha" type="matrix" values="0 0 0 0 0 0 0 0 0 0 0 0 0 0 0 0 0 0 127 0" result="hardAlpha"></feColorMatrix><feOffset dy="1.23023"></feOffset><feGaussianBlur stdDeviation="3.69069"></feGaussianBlur><feColorMatrix type="matrix" values="0 0 0 0 0.89625 0 0 0 0 0.930414 0 0 0 0 0.995833 0 0 0 0.5 0"></feColorMatrix><feBlend mode="normal" in2="effect1_dropShadow_2146_66668" result="effect2_dropShadow_2146_66668"></feBlend><feBlend mode="normal" in="SourceGraphic" in2="effect2_dropShadow_2146_66668" result="shape"></feBlend></filter><filter id="filter15_dd_2146_66668" x="118.444" y="282.64" width="63.972" height="63.972" filterUnits="userSpaceOnUse" color-interpolation-filters="sRGB"><feFlood flood-opacity="0" result="BackgroundImageFix"></feFlood><feColorMatrix in="SourceAlpha" type="matrix" values="0 0 0 0 0 0 0 0 0 0 0 0 0 0 0 0 0 0 127 0" result="hardAlpha"></feColorMatrix><feOffset dy="2.46046"></feOffset><feGaussianBlur stdDeviation="3.07558"></feGaussianBlur><feColorMatrix type="matrix" values="0 0 0 0 0.607843 0 0 0 0 0.67451 0 0 0 0 0.737255 0 0 0 0.35 0"></feColorMatrix><feBlend mode="normal" in2="BackgroundImageFix" result="effect1_dropShadow_2146_66668"></feBlend><feColorMatrix in="SourceAlpha" type="matrix" values="0 0 0 0 0 0 0 0 0 0 0 0 0 0 0 0 0 0 127 0" result="hardAlpha"></feColorMatrix><feOffset dy="1.23023"></feOffset><feGaussianBlur stdDeviation="3.69069"></feGaussianBlur><feColorMatrix type="matrix" values="0 0 0 0 0.89625 0 0 0 0 0.930414 0 0 0 0 0.995833 0 0 0 0.5 0"></feColorMatrix><feBlend mode="normal" in2="effect1_dropShadow_2146_66668" result="effect2_dropShadow_2146_66668"></feBlend><feBlend mode="normal" in="SourceGraphic" in2="effect2_dropShadow_2146_66668" result="shape"></feBlend></filter><filter id="filter16_dd_2146_66668" x="190.27" y="282.64" width="63.972" height="63.972" filterUnits="userSpaceOnUse" color-interpolation-filters="sRGB"><feFlood flood-opacity="0" result="BackgroundImageFix"></feFlood><feColorMatrix in="SourceAlpha" type="matrix" values="0 0 0 0 0 0 0 0 0 0 0 0 0 0 0 0 0 0 127 0" result="hardAlpha"></feColorMatrix><feOffset dy="2.46046"></feOffset><feGaussianBlur stdDeviation="3.07558"></feGaussianBlur><feColorMatrix type="matrix" values="0 0 0 0 0.607843 0 0 0 0 0.67451 0 0 0 0 0.737255 0 0 0 0.35 0"></feColorMatrix><feBlend mode="normal" in2="BackgroundImageFix" result="effect1_dropShadow_2146_66668"></feBlend><feColorMatrix in="SourceAlpha" type="matrix" values="0 0 0 0 0 0 0 0 0 0 0 0 0 0 0 0 0 0 127 0" result="hardAlpha"></feColorMatrix><feOffset dy="1.23023"></feOffset><feGaussianBlur stdDeviation="3.69069"></feGaussianBlur><feColorMatrix type="matrix" values="0 0 0 0 0.89625 0 0 0 0 0.930414 0 0 0 0 0.995833 0 0 0 0.5 0"></feColorMatrix><feBlend mode="normal" in2="effect1_dropShadow_2146_66668" result="effect2_dropShadow_2146_66668"></feBlend><feBlend mode="normal" in="SourceGraphic" in2="effect2_dropShadow_2146_66668" result="shape"></feBlend></filter><filter id="filter17_dd_2146_66668" x="262.096" y="282.64" width="63.972" height="63.972" filterUnits="userSpaceOnUse" color-interpolation-filters="sRGB"><feFlood flood-opacity="0" result="BackgroundImageFix"></feFlood><feColorMatrix in="SourceAlpha" type="matrix" values="0 0 0 0 0 0 0 0 0 0 0 0 0 0 0 0 0 0 127 0" result="hardAlpha"></feColorMatrix><feOffset dy="2.46046"></feOffset><feGaussianBlur stdDeviation="3.07558"></feGaussianBlur><feColorMatrix type="matrix" values="0 0 0 0 0.607843 0 0 0 0 0.67451 0 0 0 0 0.737255 0 0 0 0.35 0"></feColorMatrix><feBlend mode="normal" in2="BackgroundImageFix" result="effect1_dropShadow_2146_66668"></feBlend><feColorMatrix in="SourceAlpha" type="matrix" values="0 0 0 0 0 0 0 0 0 0 0 0 0 0 0 0 0 0 127 0" result="hardAlpha"></feColorMatrix><feOffset dy="1.23023"></feOffset><feGaussianBlur stdDeviation="3.69069"></feGaussianBlur><feColorMatrix type="matrix" values="0 0 0 0 0.89625 0 0 0 0 0.930414 0 0 0 0 0.995833 0 0 0 0.5 0"></feColorMatrix><feBlend mode="normal" in2="effect1_dropShadow_2146_66668" result="effect2_dropShadow_2146_66668"></feBlend><feBlend mode="normal" in="SourceGraphic" in2="effect2_dropShadow_2146_66668" result="shape"></feBlend></filter><filter id="filter18_dd_2146_66668" x="46.6186" y="13.8488" width="63.972" height="63.972" filterUnits="userSpaceOnUse" color-interpolation-filters="sRGB"><feFlood flood-opacity="0" result="BackgroundImageFix"></feFlood><feColorMatrix in="SourceAlpha" type="matrix" values="0 0 0 0 0 0 0 0 0 0 0 0 0 0 0 0 0 0 127 0" result="hardAlpha"></feColorMatrix><feOffset dy="2.46046"></feOffset><feGaussianBlur stdDeviation="3.07558"></feGaussianBlur><feColorMatrix type="matrix" values="0 0 0 0 0.607843 0 0 0 0 0.67451 0 0 0 0 0.737255 0 0 0 0.35 0"></feColorMatrix><feBlend mode="normal" in2="BackgroundImageFix" result="effect1_dropShadow_2146_66668"></feBlend><feColorMatrix in="SourceAlpha" type="matrix" values="0 0 0 0 0 0 0 0 0 0 0 0 0 0 0 0 0 0 127 0" result="hardAlpha"></feColorMatrix><feOffset dy="1.23023"></feOffset><feGaussianBlur stdDeviation="3.69069"></feGaussianBlur><feColorMatrix type="matrix" values="0 0 0 0 0.89625 0 0 0 0 0.930414 0 0 0 0 0.995833 0 0 0 0.5 0"></feColorMatrix><feBlend mode="normal" in2="effect1_dropShadow_2146_66668" result="effect2_dropShadow_2146_66668"></feBlend><feBlend mode="normal" in="SourceGraphic" in2="effect2_dropShadow_2146_66668" result="shape"></feBlend></filter><filter id="filter19_f_2146_66668" x="74.1207" y="37.7682" width="9.11944" height="20.0718" filterUnits="userSpaceOnUse" color-interpolation-filters="sRGB"><feFlood flood-opacity="0" result="BackgroundImageFix"></feFlood><feBlend mode="normal" in="SourceGraphic" in2="BackgroundImageFix" result="shape"></feBlend><feGaussianBlur stdDeviation="0.246046" result="effect1_foregroundBlur_2146_66668"></feGaussianBlur></filter><filter id="filter20_f_2146_66668" x="69.6919" y="33.7605" width="17.9771" height="28.9294" filterUnits="userSpaceOnUse" color-interpolation-filters="sRGB"><feFlood flood-opacity="0" result="BackgroundImageFix"></feFlood><feBlend mode="normal" in="SourceGraphic" in2="BackgroundImageFix" result="shape"></feBlend><feGaussianBlur stdDeviation="2.46046" result="effect1_foregroundBlur_2146_66668"></feGaussianBlur></filter><filter id="filter21_dd_2146_66668" x="118.444" y="13.8488" width="63.972" height="63.972" filterUnits="userSpaceOnUse" color-interpolation-filters="sRGB"><feFlood flood-opacity="0" result="BackgroundImageFix"></feFlood><feColorMatrix in="SourceAlpha" type="matrix" values="0 0 0 0 0 0 0 0 0 0 0 0 0 0 0 0 0 0 127 0" result="hardAlpha"></feColorMatrix><feOffset dy="2.46046"></feOffset><feGaussianBlur stdDeviation="3.07558"></feGaussianBlur><feColorMatrix type="matrix" values="0 0 0 0 0.607843 0 0 0 0 0.67451 0 0 0 0 0.737255 0 0 0 0.35 0"></feColorMatrix><feBlend mode="normal" in2="BackgroundImageFix" result="effect1_dropShadow_2146_66668"></feBlend><feColorMatrix in="SourceAlpha" type="matrix" values="0 0 0 0 0 0 0 0 0 0 0 0 0 0 0 0 0 0 127 0" result="hardAlpha"></feColorMatrix><feOffset dy="1.23023"></feOffset><feGaussianBlur stdDeviation="3.69069"></feGaussianBlur><feColorMatrix type="matrix" values="0 0 0 0 0.89625 0 0 0 0 0.930414 0 0 0 0 0.995833 0 0 0 0.5 0"></feColorMatrix><feBlend mode="normal" in2="effect1_dropShadow_2146_66668" result="effect2_dropShadow_2146_66668"></feBlend><feBlend mode="normal" in="SourceGraphic" in2="effect2_dropShadow_2146_66668" result="shape"></feBlend></filter><filter id="filter22_dd_2146_66668" x="190.27" y="13.8488" width="63.972" height="63.972" filterUnits="userSpaceOnUse" color-interpolation-filters="sRGB"><feFlood flood-opacity="0" result="BackgroundImageFix"></feFlood><feColorMatrix in="SourceAlpha" type="matrix" values="0 0 0 0 0 0 0 0 0 0 0 0 0 0 0 0 0 0 127 0" result="hardAlpha"></feColorMatrix><feOffset dy="2.46046"></feOffset><feGaussianBlur stdDeviation="3.07558"></feGaussianBlur><feColorMatrix type="matrix" values="0 0 0 0 0.607843 0 0 0 0 0.67451 0 0 0 0 0.737255 0 0 0 0.35 0"></feColorMatrix><feBlend mode="normal" in2="BackgroundImageFix" result="effect1_dropShadow_2146_66668"></feBlend><feColorMatrix in="SourceAlpha" type="matrix" values="0 0 0 0 0 0 0 0 0 0 0 0 0 0 0 0 0 0 127 0" result="hardAlpha"></feColorMatrix><feOffset dy="1.23023"></feOffset><feGaussianBlur stdDeviation="3.69069"></feGaussianBlur><feColorMatrix type="matrix" values="0 0 0 0 0.89625 0 0 0 0 0.930414 0 0 0 0 0.995833 0 0 0 0.5 0"></feColorMatrix><feBlend mode="normal" in2="effect1_dropShadow_2146_66668" result="effect2_dropShadow_2146_66668"></feBlend><feBlend mode="normal" in="SourceGraphic" in2="effect2_dropShadow_2146_66668" result="shape"></feBlend></filter><filter id="filter23_dd_2146_66668" x="262.096" y="13.8488" width="63.972" height="63.972" filterUnits="userSpaceOnUse" color-interpolation-filters="sRGB"><feFlood flood-opacity="0" result="BackgroundImageFix"></feFlood><feColorMatrix in="SourceAlpha" type="matrix" values="0 0 0 0 0 0 0 0 0 0 0 0 0 0 0 0 0 0 127 0" result="hardAlpha"></feColorMatrix><feOffset dy="2.46046"></feOffset><feGaussianBlur stdDeviation="3.07558"></feGaussianBlur><feColorMatrix type="matrix" values="0 0 0 0 0.607843 0 0 0 0 0.67451 0 0 0 0 0.737255 0 0 0 0.35 0"></feColorMatrix><feBlend mode="normal" in2="BackgroundImageFix" result="effect1_dropShadow_2146_66668"></feBlend><feColorMatrix in="SourceAlpha" type="matrix" values="0 0 0 0 0 0 0 0 0 0 0 0 0 0 0 0 0 0 127 0" result="hardAlpha"></feColorMatrix><feOffset dy="1.23023"></feOffset><feGaussianBlur stdDeviation="3.69069"></feGaussianBlur><feColorMatrix type="matrix" values="0 0 0 0 0.89625 0 0 0 0 0.930414 0 0 0 0 0.995833 0 0 0 0.5 0"></feColorMatrix><feBlend mode="normal" in2="effect1_dropShadow_2146_66668" result="effect2_dropShadow_2146_66668"></feBlend><feBlend mode="normal" in="SourceGraphic" in2="effect2_dropShadow_2146_66668" result="shape"></feBlend></filter><linearGradient id="paint0_linear_2146_66668" x1="186.148" y1="222.148" x2="186.148" y2="271.358" gradientUnits="userSpaceOnUse"><stop stop-color="#0F74C3"></stop><stop offset="0.473958" stop-color="#14A5DC"></stop><stop offset="0.59375" stop-color="#11AAD2"></stop><stop offset="1" stop-color="#08BBB2"></stop></linearGradient><linearGradient id="paint1_linear_2146_66668" x1="209.276" y1="171.76" x2="218.13" y2="187.272" gradientUnits="userSpaceOnUse"><stop stop-color="#18884F"></stop><stop offset="0.5" stop-color="#117E43"></stop><stop offset="1" stop-color="#0B6631"></stop></linearGradient><linearGradient id="paint2_linear_2146_66668" x1="78.3409" y1="31.7894" x2="89.824" y2="55.1307" gradientUnits="userSpaceOnUse"><stop stop-color="#E6AD10"></stop><stop offset="1" stop-color="#C87E0E"></stop></linearGradient><linearGradient id="paint3_linear_2146_66668" x1="74.6121" y1="38.1532" x2="84.2461" y2="56.0705" gradientUnits="userSpaceOnUse"><stop stop-color="#F6D751"></stop><stop offset="1" stop-color="#E6AD10"></stop></linearGradient><linearGradient id="paint4_linear_2146_66668" x1="69.5277" y1="44.5131" x2="74.8784" y2="56.6739" gradientUnits="userSpaceOnUse"><stop stop-color="#F9E589"></stop><stop offset="1" stop-color="#F6D751"></stop></linearGradient><linearGradient id="paint5_linear_2146_66668" x1="150.43" y1="20" x2="150.43" y2="69.2092" gradientUnits="userSpaceOnUse"><stop stop-color="#01B5EF"></stop><stop offset="1" stop-color="#1B68C0"></stop></linearGradient><clipPath id="clip0_2146_66668"><rect width="373" height="358" fill="white"></rect></clipPath><clipPath id="clip1_2146_66668"><rect width="25.2197" height="23.9895" fill="white" transform="translate(65.6873 167.683)"></rect></clipPath></defs></svg>